<?xml version="1.0" standalone="no"?>
<!DOCTYPE svg PUBLIC "-//W3C//DTD SVG 20010904//EN"
 "http://www.w3.org/TR/2001/REC-SVG-20010904/DTD/svg10.dtd">
<svg version="1.0" xmlns="http://www.w3.org/2000/svg"
 width="497.000000pt" height="497.000000pt" viewBox="0 0 497.000000 497.000000"
 preserveAspectRatio="xMidYMid meet">
<metadata>
Created by potrace 1.14, written by Peter Selinger 2001-2017
</metadata>
<g transform="translate(0.000000,497.000000) scale(0.100000,-0.100000)"
fill="#000000" stroke="none">
<path d="M2275 4963 c-44 -5 -235 -32 -270 -38 -243 -43 -607 -185 -817 -321
-88 -56 -124 -79 -133 -86 -242 -182 -410 -347 -570 -563 -39 -53 -115 -165
-115 -171 0 -2 -12 -23 -26 -45 -54 -86 -138 -266 -197 -424 -25 -66 -74 -254
-92 -350 -33 -175 -40 -253 -40 -465 0 -162 10 -344 21 -361 1 -3 6 -28 9 -55
31 -238 187 -661 311 -844 13 -19 24 -38 24 -42 0 -4 21 -37 47 -74 27 -36 62
-86 78 -109 17 -24 45 -60 63 -81 17 -20 32 -42 32 -47 0 -24 189 -227 290
-310 25 -20 50 -41 57 -47 36 -29 198 -134 258 -165 83 -44 165 -89 220 -121
129 -74 479 -180 690 -208 269 -37 549 -37 735 -1 14 2 41 7 60 10 80 13 326
75 375 95 11 5 54 21 95 36 41 14 89 35 105 44 46 27 94 54 212 117 59 31 114
62 120 69 7 7 29 22 50 35 21 13 40 25 43 28 3 4 34 28 70 56 36 27 81 63 100
80 53 45 262 256 290 294 14 18 41 54 61 79 79 102 192 280 253 400 128 254
199 483 251 807 11 64 15 515 6 570 -5 28 -12 74 -15 104 -4 30 -9 64 -11 75
-3 12 -7 32 -9 46 -66 359 -259 771 -501 1070 -182 225 -466 468 -690 590 -33
18 -80 44 -105 58 -202 111 -561 223 -795 248 -33 4 -64 9 -69 12 -11 6 -424
11 -471 5z"/>
</g>
</svg>
